# xmcd
#
# Track frame offsets:
#	150
#	23694
#	42188
#	61924
#	80198
#	100456
#	117969
#	141320
#	167176
#	186820
#	204976
#
# Disc length: 3021 seconds
#
# Revision: 1
# Processed by: cddbd v1.5.1PL0 Copyright (c) Steve Scherf et al.
# Submitted via: audiograbber 1.83.01
#
DISCID=980bcb0b
DTITLE=El Chato Arismendi - Avasallante
DYEAR=1900
DGENRE=
TTITLE0=A fuego lento
TTITLE1=Quiero verte
TTITLE2=A sol naciente
TTITLE3=Echao pa´ lante
TTITLE4=Cupido
TTITLE5=Lucero al amanecer
TTITLE6=Payaso
TTITLE7=Devórame otra vez
TTITLE8=Sientate ahí
TTITLE9=Escarbaré tu cuerpo
TTITLE10=Volveré
EXTD=
EXTT0=
EXTT1=
EXTT2=
EXTT3=
EXTT4=
EXTT5=
EXTT6=
EXTT7=
EXTT8=
EXTT9=
EXTT10=
PLAYORDER=
